# xmcd CD database file
#
# Track frame offsets:
#	150
#	27275
#	50068
#	62983
#	78130
#	102258
#	129283
#	143763
#	161895
#	176178
#	200403
#	228578
#
# Disc length: 3351 seconds
#
# Revision: 0
# Processed by: cddbd v1.4PL0 Copyright (c) Steve Scherf et al.
# Submitted via: Feurio! 1.63 - http://www.feurio.com
#
DISCID=a70d150c
DTITLE=Leon Delray - I'm Still Waitin'
DYEAR=1993
DGENRE=
TTITLE0=All The Lonely Girls
TTITLE1=Please Don't Ask Me Why
TTITLE2=Macho Man
TTITLE3=I'm Not In Love
TTITLE4=My Love For You
TTITLE5=Day By Day
TTITLE6=Good Mornin'
TTITLE7=I Wanna Be Free (Creepin')
TTITLE8=Unfree
TTITLE9=I'm Still Waitin' (For Your Call)
TTITLE10=I Wonder Will We Ever Learn
TTITLE11=I Wanna Be Free (Reprise - Dance!)
EXTD=
EXTT0=
EXTT1=
EXTT2=
EXTT3=
EXTT4=
EXTT5=
EXTT6=
EXTT7=
EXTT8=
EXTT9=
EXTT10=
EXTT11=
PLAYORDER=
